# xmcd
#
# Track frame offsets:
#	150
#	21146
#	37628
#	67544
#	102546
#	120994
#	141542
#	172721
#
# Disc length: 2507 seconds
#
# Revision: 4
# Processed by: cddbd v1.5.2PL0 Copyright (c) Steve Scherf et al.
# Submitted via: audiograbber 1.83.01
#
DISCID=5709c908
DTITLE=The Notwist - Superheroes, Ghostvillains and Stuff [CD 1)
DYEAR=2016
DGENRE=Alternative Rock
TTITLE0=They Follow Me [live]
TTITLE1=Close To The Glass [live]
TTITLE2=Kong [live]
TTITLE3=Into Another Tune [live]
TTITLE4=Pick Up The Phone [live]
TTITLE5=One With The Freaks [live]
TTITLE6=This Room [live]
TTITLE7=One Dark Love Poem [live]
EXTD=
EXTT0=
EXTT1=
EXTT2=
EXTT3=
EXTT4=
EXTT5=
EXTT6=
EXTT7=
PLAYORDER=
